#!OML:ASF I:\golf\golf\golf 2\Subject 1\2002-09-07\Subject1.ASF
:FULLY-SPECIFIED
:DEGREES
211
root -10.271 17.9307 5.60097 -16.5745 74.8669 -31.8922
lowerback 4.05097 1.03543 -4.1274
upperback 5.73686 1.39698 2.23135
thorax 3.51863 0.544048 4.62037
lowerneck -12.0905 2.86117 3.92584
upperneck 42.2349 7.98553 -5.50776
head 18.2855 3.66303 -1.65057
rclavicle -1.15295e-014 0
rhumerus -11.215 25.4982 -100.788
rradius 38.0371
rwrist -42.6076
rhand -32.6631 -10.4515
rfingers 7.12502
rthumb -5.88892 -40.3497
lclavicle -1.15295e-014 0
lhumerus -8.98926 -37.854 105.779
lradius 35.0791
lwrist 47.7776
lhand 0.692187 54.6164
lfingers 7.12502
lthumb 26.2532 82.8202
rfemur -31.0413 2.69693 21.2499
rtibia 26.2046
rfoot -6.46992 3.87468
rtoes 2.40344
lfemur -27.2338 9.77052 -7.15525
ltibia 32.2521
lfoot -11.9819 6.73081
ltoes -18.3532
212
root -10.2705 17.9296 5.59672 -17.2094 74.9938 -32.4754
lowerback 4.14707 1.00814 -4.06522
upperback 5.7727 1.35922 2.33152
thorax 3.50557 0.526359 4.68929
lowerneck -12.1586 2.85095 3.83153
upperneck 42.2586 8.01732 -5.5373
head 18.319 3.65615 -1.6399
rclavicle 8.34896e-015 -9.54166e-015
rhumerus -11.2427 25.7861 -100.694
rradius 38.1735
rwrist -42.8573
rhand -32.8328 -10.5479
rfingers 7.12502
rthumb -6.05278 -40.4415
lclavicle 8.34896e-015 -9.54166e-015
lhumerus -8.88712 -37.7141 105.771
lradius 35.0706
lwrist 47.8704
lhand 0.468568 54.7991
lfingers 7.12502
lthumb 26.0391 83.0346
rfemur -30.9408 2.57982 21.3357
rtibia 26.1894
rfoot -6.54123 3.80842
rtoes 1.8841
lfemur -27.1965 9.68703 -7.05698
ltibia 32.2215
lfoot -12.0317 6.57394
ltoes -17.9243
213
root -10.27 17.9302 5.59622 -17.3832 75.0871 -32.5972
lowerback 4.2347 1.01049 -4.19029
upperback 5.77095 1.35673 2.40839
thorax 3.45214 0.520596 4.83897
lowerneck -12.1514 2.85352 3.80618
upperneck 42.2645 8.05303 -5.57767
head 18.3258 3.66302 -1.64736
rclavicle -1.98785e-014 -1.35174e-014
rhumerus -11.2458 25.7258 -100.744
rradius 38.0699
rwrist -42.7717
rhand -32.9043 -10.5654
rfingers 7.12502
rthumb -6.12184 -40.4569
lclavicle -1.98785e-014 -1.35174e-014
lhumerus -8.82318 -37.5178 105.781
lradius 35.0177
lwrist 47.8116
lhand 0.2052 54.9969
lfingers 7.12502
lthumb 25.7869 83.2693
rfemur -30.865 2.63401 21.2939
rtibia 26.2076
rfoot -6.64101 3.59821
rtoes 0.661904
lfemur -27.1536 9.70081 -7.08482
ltibia 32.1927
lfoot -12.0714 6.47164
ltoes -17.7876
214
root -10.2677 17.9316 5.59367 -17.2146 75.1745 -32.3776
lowerback 4.28248 1.15333 -4.2294
upperback 5.75114 1.54568 2.31976
thorax 3.38393 0.617567 4.76316
lowerneck -12.1009 2.75871 4.06545
upperneck 42.2537 7.82772 -5.57462
head 18.2983 3.62005 -1.73565
rclavicle 2.50469e-014 -1.74931e-014
rhumerus -11.1653 25.1005 -100.846
rradius 37.8947
rwrist -42.539
rhand -32.8109 -10.4929
rfingers 7.12502
rthumb -6.03166 -40.387
lclavicle 2.50469e-014 -1.74931e-014
lhumerus -8.94954 -37.8426 105.819
lradius 34.9658
lwrist 47.6576
lhand 0.294448 55.0063
lfingers 7.12502
lthumb 25.8724 83.2662
rfemur -30.8236 2.60326 21.1861
rtibia 26.2558
rfoot -6.66833 3.52151
rtoes -0.0868155
lfemur -27.1148 9.7737 -7.22376
ltibia 32.164
lfoot -12.0815 6.37065
ltoes -17.9207
215
root -10.2664 17.9309 5.58754 -17.1848 75.3255 -32.3353
lowerback 4.30241 1.3332 -4.08145
upperback 5.72951 1.78946 2.1459
thorax 3.32934 0.750309 4.49141
lowerneck -12.1016 2.58447 4.38927
upperneck 42.253 7.4243 -5.4988
head 18.2715 3.52464 -1.83386
rclavicle 0 1.27222e-014
rhumerus -11.1324 24.4467 -100.883
rradius 37.9224
rwrist -42.3918
rhand -32.6408 -10.5681
rfingers 7.12502
rthumb -5.86747 -40.4669
lclavicle 0 1.27222e-014
lhumerus -9.15404 -38.5146 105.834
lradius 34.9685
lwrist 47.5896
lhand 0.217933 54.9232
lfingers 7.12502
lthumb 25.7991 83.1938
rfemur -30.8377 2.40283 21.1076
rtibia 26.3159
rfoot -6.6736 3.61442
rtoes 0.645624
lfemur -27.15 9.82384 -7.35919
ltibia 32.1283
lfoot -12.0588 6.23224
ltoes -18.3757
216
root -10.2662 17.9304 5.58135 -17.2215 75.5267 -32.4249
lowerback 4.24964 1.3663 -4.04606
upperback 5.7147 1.83597 2.10956
thorax 3.34001 0.775358 4.43358
lowerneck -12.151 2.49188 4.466
upperneck 42.2841 7.27224 -5.51942
head 18.2951 3.47525 -1.88528
rclavicle -1.94809e-014 -2.38542e-014
rhumerus -11.1225 24.4105 -100.913
rradius 37.9616
rwrist -42.3552
rhand -32.5321 -10.8913
rfingers 7.12502
rthumb -5.76251 -40.7929
lclavicle -1.94809e-014 -2.38542e-014
lhumerus -9.2263 -38.6679 105.833
lradius 35.0177
lwrist 47.5855
lhand 0.524914 54.8677
lfingers 7.12502
lthumb 26.0931 83.0952
rfemur -30.9175 2.22572 21.0204
rtibia 26.3777
rfoot -6.67076 3.63056
rtoes 1.68367
lfemur -27.2704 9.75446 -7.47905
ltibia 32.0937
lfoot -12.0534 6.15184
ltoes -18.5915
217
root -10.2661 17.9311 5.57472 -17.3057 75.7155 -32.5628
lowerback 4.19226 1.36854 -4.01132
upperback 5.70458 1.84115 2.10605
thorax 3.3618 0.778753 4.41156
lowerneck -12.1673 2.44803 4.49941
upperneck 42.3148 7.22845 -5.57236
head 18.3197 3.45889 -1.92434
rclavicle -2.06736e-014 1.11319e-014
rhumerus -11.1104 24.5731 -100.941
rradius 38.0097
rwrist -42.5305
rhand -32.5692 -11.0317
rfingers 7.12502
rthumb -5.79832 -40.9324
lclavicle -2.06736e-014 1.11319e-014
lhumerus -9.24196 -38.6747 105.822
lradius 35.0306
lwrist 47.6152
lhand 0.467973 54.7748
lfingers 7.12502
lthumb 26.0385 83.0104
rfemur -30.9933 2.07381 20.9555
rtibia 26.4352
rfoot -6.66765 3.57212
rtoes 1.57215
lfemur -27.3818 9.66168 -7.5745
ltibia 32.066
lfoot -12.0913 6.02423
ltoes -18.084
218
root -10.2654 17.9311 5.56761 -17.767 75.8968 -33.059
lowerback 4.18351 1.37315 -3.8347
upperback 5.69228 1.85054 2.09869
thorax 3.35663 0.790672 4.30379
lowerneck -12.1532 2.41142 4.48258
upperneck 42.3166 7.15887 -5.51679
head 18.3055 3.43809 -1.90762
rclavicle 7.95139e-015 -1.66979e-014
rhumerus -11.1786 24.5681 -100.933
rradius 38.1251
rwrist -42.6696
rhand -32.6221 -10.9288
rfingers 7.12502
rthumb -5.84935 -40.8281
lclavicle 7.95139e-015 -1.66979e-014
lhumerus -9.25504 -38.7076 105.811
lradius 34.9881
lwrist 47.5912
lhand 0.441941 54.6821
lfingers 7.12502
lthumb 26.0136 82.9213
rfemur -31.0318 1.8756 20.9947
rtibia 26.4801
rfoot -6.72958 3.50504
rtoes 0.958019
lfemur -27.4769 9.6323 -7.59047
ltibia 32.0401
lfoot -12.0971 5.83635
ltoes -18.0605
219
root -10.2637 17.9317 5.56141 -18.2999 76.101 -33.6237
lowerback 4.18075 1.35566 -3.72106
upperback 5.68211 1.82865 2.14101
thorax 3.35099 0.783653 4.28399
lowerneck -12.1495 2.37545 4.42699
upperneck 42.3034 7.11139 -5.49306
head 18.2874 3.41516 -1.89441
rclavicle -7.95139e-015 5.1684e-015
rhumerus -11.2607 24.5618 -100.899
rradius 38.2403
rwrist -42.802
rhand -32.7822 -10.8288
rfingers 7.12502
rthumb -6.00395 -40.7238
lclavicle -7.95139e-015 5.1684e-015
lhumerus -9.24144 -38.706 105.819
lradius 34.9762
lwrist 47.5734
lhand 0.397738 54.8243
lfingers 7.12502
lthumb 25.9713 83.0697
rfemur -31.0568 1.68692 21.0183
rtibia 26.5183
rfoot -6.81288 3.46019
rtoes 0.496243
lfemur -27.5685 9.56031 -7.59192
ltibia 32.0119
lfoot -12.0993 5.66561
ltoes -18.0705
220
root -10.2624 17.9326 5.55495 -18.5513 76.3417 -33.8819
lowerback 4.2082 1.3788 -3.67917
upperback 5.65533 1.85865 2.15384
thorax 3.30499 0.801533 4.2717
lowerneck -12.1009 2.2946 4.43373
upperneck 42.2928 7.00111 -5.51519
head 18.259 3.37438 -1.92644
rclavicle 1.51076e-014 1.90833e-014
rhumerus -11.3114 24.4477 -100.868
rradius 38.3041
rwrist -42.9736
rhand -32.8962 -10.694
rfingers 7.12502
rthumb -6.11398 -40.5858
lclavicle 1.51076e-014 1.90833e-014
lhumerus -9.29539 -38.7702 105.895
lradius 34.9866
lwrist 47.5167
lhand -1.14955 55.3664
lfingers 7.12502
lthumb 24.4889 83.8207
rfemur -31.0643 1.49229 20.9442
rtibia 26.5617
rfoot -6.86434 3.4259
rtoes -0.0309907
lfemur -27.6332 9.40531 -7.66731
ltibia 31.9731
lfoot -12.1069 5.51012
ltoes -17.5025
221
root -10.2619 17.9323 5.54832 -18.7022 76.5769 -34.0589
lowerback 4.2083 1.40771 -3.62481
upperback 5.6296 1.8977 2.13659
thorax 3.27568 0.824391 4.22159
lowerneck -12.0533 2.22567 4.44384
upperneck 42.2651 6.88637 -5.49746
head 18.2173 3.33654 -1.94074
rclavicle -1.13307e-014 0
rhumerus -11.2483 24.2172 -100.937
rradius 38.1983
rwrist -42.9556
rhand -32.8879 -10.6178
rfingers 7.12502
rthumb -6.10602 -40.5098
lclavicle -1.13307e-014 0
lhumerus -9.38095 -38.7797 105.952
lradius 35.0312
lwrist 47.4334
lhand -0.571529 55.0242
lfingers 7.12502
lthumb 25.0428 83.4025
rfemur -31.0893 1.37117 20.8277
rtibia 26.595
rfoot -6.89245 3.30074
rtoes -0.190126
lfemur -27.71 9.23844 -7.7534
ltibia 31.9264
lfoot -12.1227 5.36477
ltoes -16.7198
222
root -10.2609 17.9325 5.54365 -18.5078 76.7476 -33.9002
lowerback 4.16052 1.42977 -3.74373
upperback 5.63465 1.92648 2.14544
thorax 3.30195 0.833425 4.299
lowerneck -12.0349 2.2079 4.42642
upperneck 42.1978 6.85 -5.48851
head 18.1664 3.32112 -1.93878
rclavicle -1.5704e-014 -1.86858e-014
rhumerus -11.1465 24.0749 -101.018
rradius 38.0155
rwrist -42.7543
rhand -32.7413 -10.5258
rfingers 7.12502
rthumb -5.96448 -40.4218
lclavicle -1.5704e-014 -1.86858e-014
lhumerus -9.43184 -38.8663 105.945
lradius 35.2124
lwrist 47.6935
lhand -0.76169 55.016
lfingers 7.12502
lthumb 24.8606 83.4196
rfemur -31.111 1.46431 20.6152
rtibia 26.5897
rfoot -6.87676 3.06103
rtoes -0.141414
lfemur -27.7758 9.17194 -7.88904
ltibia 31.888
lfoot -12.1537 5.23483
ltoes -16.3922
223
root -10.2594 17.9339 5.54068 -18.6438 76.8266 -34.0279
lowerback 4.1658 1.46458 -3.79821
upperback 5.64326 1.97167 2.19267
thorax 3.30079 0.85325 4.37826
lowerneck -12.0035 2.19982 4.36808
upperneck 42.1786 6.84649 -5.4601
head 18.1411 3.31645 -1.91489
rclavicle 1.45113e-014 3.18055e-015
rhumerus -11.1648 24.0529 -101.029
rradius 37.9482
rwrist -42.5986
rhand -32.6103 -10.3043
rfingers 7.12502
rthumb -5.83794 -40.2039
lclavicle 1.45113e-014 3.18055e-015
lhumerus -9.55226 -39.2277 105.985
lradius 35.6189
lwrist 48.7998
lhand -2.62116 55.781
lfingers 7.12502
lthumb 23.0775 84.4191
rfemur -31.0594 1.65207 20.5156
rtibia 26.5561
rfoot -6.85523 2.75291
rtoes -0.593233
lfemur -27.7881 9.27144 -7.93791
ltibia 31.8715
lfoot -12.1522 5.07876
ltoes -17.0609
224
root -10.2575 17.9372 5.53628 -19.5533 76.9458 -34.9361
lowerback 4.18905 1.45756 -3.64377
upperback 5.65042 1.9643 2.25817
thorax 3.29771 0.854586 4.35897
lowerneck -12.0307 2.18351 4.35388
upperneck 42.2262 6.83488 -5.44942
head 18.1751 3.31286 -1.90922
rclavicle -1.94809e-014 2.38542e-014
rhumerus -11.217 24.2292 -101.012
rradius 38.0136
rwrist -42.7458
rhand -32.6913 -10.1526
rfingers 7.12502
rthumb -5.91614 -40.05
lclavicle -1.94809e-014 2.38542e-014
lhumerus -9.5771 -39.3092 105.952
lradius 35.8099
lwrist 49.273
lhand -0.568539 55.8873
lfingers 7.12502
lthumb 25.0457 84.2651
rfemur -30.9873 1.70719 20.5998
rtibia 26.5143
rfoot -6.8938 2.47364
rtoes -0.901344
lfemur -27.7638 9.12392 -7.71884
ltibia 31.8685
lfoot -12.3529 4.65329
ltoes -15.1994
225
root -10.2559 17.939 5.53078 -20.2349 77.2017 -35.6596
lowerback 4.16522 1.44825 -3.5301
upperback 5.64297 1.95455 2.2702
thorax 3.30655 0.853769 4.30801
lowerneck -12.0502 2.12125 4.39521
upperneck 42.2354 6.73373 -5.45678
head 18.1789 3.28014 -1.93832
rclavicle 8.34896e-015 -2.82274e-014
rhumerus -11.2829 24.3853 -100.919
rradius 38.1412
rwrist -42.8616
rhand -32.5711 -10.2609
rfingers 7.12502
rthumb -5.80011 -40.1615
lclavicle 8.34896e-015 -2.82274e-014
lhumerus -9.50701 -39.0211 105.879
lradius 35.5593
lwrist 48.3422
lhand -0.365379 55.8331
lfingers 7.12502
lthumb 25.2404 84.1837
rfemur -30.9665 1.61822 20.5843
rtibia 26.4708
rfoot -6.93816 2.24883
rtoes -1.35734
lfemur -27.8373 8.8603 -7.62354
ltibia 31.8713
lfoot -12.5401 4.22328
ltoes -13.0015
